<?xml version="1.0" encoding="UTF-8" standalone="no"?>
<!-- Created with Inkscape (http://www.inkscape.org/) -->
<!-- ClipArt by Arvin61r58 (http://openclipart.org/user-detail/Arvin61r58) -->
<svg
   xmlns:dc="http://purl.org/dc/elements/1.1/"
   xmlns:cc="http://creativecommons.org/ns#"
   xmlns:rdf="http://www.w3.org/1999/02/22-rdf-syntax-ns#"
   xmlns:svg="http://www.w3.org/2000/svg"
   xmlns="http://www.w3.org/2000/svg"
   xmlns:xlink="http://www.w3.org/1999/xlink"
   id="svg1173"
   version="1.1"
   viewBox="0 0 54.239583 54.239585"
   height="205"
   width="205">
  <title
     id="title1175">Smiley - Happy</title>
  <defs
     id="defs1167">
    <linearGradient
       gradientUnits="userSpaceOnUse"
       y2="84.639999"
       x2="198.72"
       y1="17.360001"
       x1="124.64"
       id="linearGradient12938"
       xlink:href="#linearGradient12888" />
    <linearGradient
       id="linearGradient12888">
      <stop
         stop-color="#f1e033"
         offset="0"
         id="stop12858" />
      <stop
         stop-color="#f3e135"
         offset="0.071429"
         id="stop12860" />
      <stop
         stop-color="#f6e32f"
         offset="0.142857"
         id="stop12862" />
      <stop
         stop-color="#f7e631"
         offset="0.214286"
         id="stop12864" />
      <stop
         stop-color="#faea2c"
         offset="0.285714"
         id="stop12866" />
      <stop
         stop-color="#f9e829"
         offset="0.357143"
         id="stop12868" />
      <stop
         stop-color="#f2e024"
         offset="0.428571"
         id="stop12870" />
      <stop
         stop-color="#ebda1e"
         offset="0.5"
         id="stop12872" />
      <stop
         stop-color="#e5d41b"
         offset="0.571429"
         id="stop12874" />
      <stop
         stop-color="#e3d21a"
         offset="0.642857"
         id="stop12876" />
      <stop
         stop-color="#dfcf17"
         offset="0.714286"
         id="stop12878" />
      <stop
         stop-color="#d8c914"
         offset="0.785714"
         id="stop12880" />
      <stop
         stop-color="#d4c312"
         offset="0.857143"
         id="stop12882" />
      <stop
         stop-color="#d1c10f"
         offset="0.928571"
         id="stop12884" />
      <stop
         stop-color="#cfbb0e"
         offset="1"
         id="stop12886" />
    </linearGradient>
  </defs>
  <metadata
     id="metadata1170">
    <rdf:RDF>
      <cc:Work
         rdf:about="">
        <dc:format>image/svg+xml</dc:format>
        <dc:type
           rdf:resource="http://purl.org/dc/dcmitype/StillImage" />
        <dc:title>Smiley - Happy</dc:title>
        <cc:license
           rdf:resource="http://creativecommons.org/publicdomain/zero/1.0/" />
        <dc:creator>
          <cc:Agent>
            <dc:title>Arvin61r58</dc:title>
          </cc:Agent>
        </dc:creator>
        <dc:publisher>
          <cc:Agent>
            <dc:title>Openclipart.org</dc:title>
          </cc:Agent>
        </dc:publisher>
        <dc:identifier>https://openclipart.org/</dc:identifier>
        <dc:source>https://openclipart.org/user-detail/Arvin61r58</dc:source>
        <dc:subject>
          <rdf:Bag>
            <rdf:li>grin</rdf:li>
            <rdf:li>happy</rdf:li>
            <rdf:li>smile</rdf:li>
            <rdf:li>smiley</rdf:li>
            <rdf:li>emoji</rdf:li>
            <rdf:li>emoticon</rdf:li>
            <rdf:li>face</rdf:li>
            <rdf:li>icon</rdf:li>
          </rdf:Bag>
        </dc:subject>
        <dc:description>happy emoticon</dc:description>
      </cc:Work>
      <cc:License
         rdf:about="http://creativecommons.org/publicdomain/zero/1.0/">
        <cc:permits
           rdf:resource="http://creativecommons.org/ns#Reproduction" />
        <cc:permits
           rdf:resource="http://creativecommons.org/ns#Distribution" />
        <cc:permits
           rdf:resource="http://creativecommons.org/ns#DerivativeWorks" />
      </cc:License>
    </rdf:RDF>
  </metadata>
  <g
     transform="translate(0,-242.7604)"
     id="layer1">
    <g
       style="stroke-width:0.5"
       id="g175"
       transform="matrix(0.52916667,0,0,0.52916667,-58.435875,242.91386)">
      <title
         id="title123">Happy Smiley  --  by Arvin61r58</title>
      <path
         style="fill:url(#linearGradient12938);fill-opacity:1;fill-rule:nonzero;stroke:none;stroke-width:1px;stroke-linecap:round;stroke-linejoin:round;stroke-miterlimit:5;stroke-dasharray:none;stroke-opacity:1"
         d="m 211.68,50.96 -0.08,2.64 -0.48,5.04 -1.04,4.88 -1.44,4.72 -1.92,4.48 -2.24,4.24 -2.72,4 -3.04,3.68 -3.44,3.36 -3.68,3.12 -4,2.64 -4.24,2.32 -4.48,1.92 -4.72,1.44 -4.88,1.04 -5.04,0.48 h -2.56 -2.56 l -5.04,-0.48 -4.88,-1.04 -4.72,-1.44 -4.48,-1.92 -4.24,-2.32 -4,-2.64 L 128,88 l -3.36,-3.36 -3.04,-3.68 -2.72,-4 -2.32,-4.24 -1.84,-4.48 -1.52,-4.72 -0.96,-4.88 -0.56,-5.04 V 50.96 48.4 l 0.56,-5.04 0.96,-4.88 1.52,-4.72 1.84,-4.48 2.32,-4.24 2.72,-4 3.04,-3.68 3.36,-3.36 3.76,-3.12 4,-2.64 4.24,-2.32 4.48,-1.92 4.72,-1.44 4.88,-1.04 5.04,-0.48 2.56,-0.08 2.56,0.08 5.04,0.48 4.88,1.04 4.72,1.44 4.48,1.92 4.24,2.32 4,2.64 3.68,3.12 3.44,3.36 3.04,3.68 2.72,4 2.24,4.24 1.92,4.48 1.44,4.72 1.04,4.88 0.48,5.04 z"
         id="path17" />
      <path
         style="fill:#2d2c02;fill-opacity:1;fill-rule:nonzero;stroke:none;stroke-width:0.5"
         d="m 147.84,74.16 3.12,2.48 4.96,3.52 3.6,1.36 1.92,0.16 1.92,-0.16 3.6,-1.36 5.04,-3.44 3.04,-2.56 2.48,-2.08 3.76,-4 1.28,-1.76 v -0.24 l -1.2,0.16 -6.08,2.08 -2.88,0.8 -2.72,0.48 -5.52,0.56 -2.72,0.08 -2.72,-0.08 -5.52,-0.56 -2.64,-0.48 -2.72,-0.72 -5.52,-2.08 -1.44,-0.16 -0.16,0.08 0.16,0.48 0.88,1.44 3.52,3.84 z"
         id="path19" />
      <path
         style="fill:#e3e3e3;fill-opacity:1;fill-rule:nonzero;stroke:none;stroke-width:0.5"
         d="m 139.44,42.8 -0.8,-1.04 -1.2,-2.4 -0.8,-2.56 -0.4,-2.72 v -2.8 l 0.4,-2.72 0.8,-2.64 1.2,-2.4 0.8,-1.04 0.96,-1.12 2.08,-1.28 2.08,-0.32 2,0.64 1.76,1.52 1.52,2.32 1.12,2.88 0.64,3.6 0.08,1.92 -0.08,2 -0.64,3.52 -1.12,2.96 -1.52,2.24 -1.76,1.52 -2,0.64 -2.08,-0.24 -2.08,-1.36 z"
         id="path21" />
      <path
         style="fill:#000000;fill-opacity:1;fill-rule:nonzero;stroke:none;stroke-width:0.5"
         d="m 147.76,35.52 -0.08,1.04 -0.56,1.84 -1.04,1.36 -1.36,0.8 -0.8,0.08 -0.8,-0.08 -1.36,-0.8 -1.04,-1.36 -0.56,-1.84 -0.08,-1.04 0.08,-1.04 0.56,-1.84 1.04,-1.36 1.36,-0.72 0.8,-0.08 0.8,0.08 1.36,0.72 1.04,1.36 0.56,1.84 z"
         id="path23" />
      <path
         style="fill:#e3e3e3;fill-opacity:1;fill-rule:nonzero;stroke:none;stroke-width:0.5"
         d="m 175.12,42.8 -0.72,-1.04 -1.2,-2.4 -0.88,-2.56 -0.4,-2.72 v -2.8 l 0.4,-2.72 0.88,-2.64 1.2,-2.4 0.72,-1.04 1.04,-1.12 2,-1.28 2.08,-0.32 2,0.64 1.84,1.52 1.52,2.32 1.12,2.88 0.56,3.6 0.08,1.92 -0.08,2 -0.56,3.52 -1.12,2.96 -1.52,2.24 -1.84,1.52 -2,0.64 -2.08,-0.24 -2,-1.36 z"
         id="path25" />
      <path
         style="fill:#000000;fill-opacity:1;fill-rule:nonzero;stroke:none;stroke-width:0.5"
         d="m 183.44,35.52 v 1.04 l -0.64,1.84 -1.04,1.36 -1.36,0.8 -0.8,0.08 -0.72,-0.08 -1.36,-0.8 -1.04,-1.36 -0.64,-1.84 v -1.04 -1.04 l 0.64,-1.84 1.04,-1.36 1.36,-0.72 0.72,-0.08 0.8,0.08 1.36,0.72 1.04,1.36 0.64,1.84 z"
         id="path27" />
    </g>
  </g>
</svg>
